<?xml version="1.0" standalone="no"?>
<!DOCTYPE svg PUBLIC "-//W3C//DTD SVG 20010904//EN"
 "http://www.w3.org/TR/2001/REC-SVG-20010904/DTD/svg10.dtd">
<svg version="1.0" xmlns="http://www.w3.org/2000/svg"
 width="258.000000pt" height="190.000000pt" viewBox="0 0 258.000000 190.000000"
 preserveAspectRatio="xMidYMid meet">

<g transform="translate(0.000000,190.000000) scale(0.100000,-0.100000)"
fill="#000000" stroke="none">
<path d="M247 1890 c-62 -11 -125 -49 -175 -105 -75 -85 -72 -55 -72 -835 0
-613 2 -702 16 -744 23 -67 100 -147 173 -180 l59 -26 1049 2 1048 3 50 24
c63 32 124 93 156 156 l24 50 0 710 c0 784 4 737 -66 832 -29 39 -55 59 -106
85 l-68 33 -1020 1 c-561 1 -1041 -2 -1068 -6z m1933 -238 c0 -10 -778 -560
-857 -607 l-30 -17 -269 204 c-148 112 -332 251 -408 308 l-139 105 34 6 c46
9 1669 9 1669 1z m-1650 -349 c713 -538 761 -573 782 -562 24 13 111 74 613
429 215 152 396 280 403 284 10 6 12 -105 10 -583 -3 -551 -4 -591 -21 -608
-17 -17 -72 -18 -980 -21 -529 -2 -986 0 -1015 3 -28 4 -59 13 -67 21 -13 13
-15 98 -15 636 0 495 3 618 13 611 6 -6 131 -100 277 -210z"/>
</g>
</svg>
